<?xml version="1.0" encoding="UTF-8" standalone="no"?>
<svg
   xmlns:dc="http://purl.org/dc/elements/1.1/"
   xmlns:cc="http://creativecommons.org/ns#"
   xmlns:rdf="http://www.w3.org/1999/02/22-rdf-syntax-ns#"
   xmlns:svg="http://www.w3.org/2000/svg"
   xmlns="http://www.w3.org/2000/svg"
   xmlns:sodipodi="http://sodipodi.sourceforge.net/DTD/sodipodi-0.dtd"
   xmlns:inkscape="http://www.inkscape.org/namespaces/inkscape"
   height="24px"
   viewBox="0 0 24 24"
   width="24px"
   fill="#000000"
   version="1.1"
   id="svg6"
   sodipodi:docname="photo_camera.svg"
   inkscape:version="1.0.2-2 (e86c870879, 2021-01-15)">
  <path
     id="path831-6"
     style="fill:#ffffff;fill-opacity:0.60176992;stroke:none;stroke-width:1.06132px;stroke-linecap:butt;stroke-linejoin:miter;stroke-opacity:1"
     d="M 9.1845711,4.142578 C 8.5656571,4.692822 7.3017583,5.814453 7.3017583,5.814453 h -3.890625 c 0,0 -1.281249,0.2526346 -1.28125,1.1972657 V 18.703125 c 0,0 0.12166,1.154297 1.398438,1.154297 h 8.4707027 8.470703 c 1.276779,0 1.40039,-1.154297 1.40039,-1.154297 V 7.0117187 c 0,-0.9446311 -1.279296,-1.1972657 -1.279296,-1.1972657 h -3.894532 c 0,0 -1.263899,-1.121631 -1.882812,-1.671875 h -2.814453 z m 2.8085929,4.1777347 a 4.3675642,4.3675642 0 0 1 0.0078,0 4.3675642,4.3675642 0 0 1 4.3672,4.3671873 4.3675642,4.3675642 0 0 1 -4.367187,4.367188 A 4.3675642,4.3675642 0 0 1 7.6318363,12.6875 4.3675642,4.3675642 0 0 1 11.993164,8.3203127 Z" />
  <metadata
     id="metadata12">
    <rdf:RDF>
      <cc:Work
         rdf:about="">
        <dc:format>image/svg+xml</dc:format>
        <dc:type
           rdf:resource="http://purl.org/dc/dcmitype/StillImage" />
      </cc:Work>
    </rdf:RDF>
  </metadata>
  <defs
     id="defs10" />
  <sodipodi:namedview
     pagecolor="#ffffff"
     bordercolor="#666666"
     borderopacity="1"
     objecttolerance="10"
     gridtolerance="10"
     guidetolerance="10"
     inkscape:pageopacity="0"
     inkscape:pageshadow="2"
     inkscape:window-width="1920"
     inkscape:window-height="1057"
     id="namedview8"
     showgrid="false"
     inkscape:zoom="13.376103"
     inkscape:cx="19.495808"
     inkscape:cy="12.186775"
     inkscape:window-x="-8"
     inkscape:window-y="-8"
     inkscape:window-maximized="1"
     inkscape:current-layer="svg6"
     inkscape:document-rotation="0"
     showguides="true"
     inkscape:guide-bbox="true" />
</svg>
